<svg xmlns="http://www.w3.org/2000/svg" viewBox="0 451.5 256 120.6"><path fill="#DD2427" d="M70.3 451.7H2c-1 0-1.5.7-1.5 1.6v28.4c0 1 1.1 2.2 2.1 2.2h16c1.1 0 2.1.8 2.1 1.9v83.5c0 1.3 1.1 2.2 2.2 2.2h27.2c1.3 0 2.2-1 2.2-2.1v-83.3c0-1.5.8-2.2 1.9-2.2h16c1.3 0 2.2-1 2.2-2.2v-28c.1-1.3-.9-2-2.1-2zm71.7 0h-27c-.8 0-1.3.6-1.3 1.5v41.6c0 .5-.7 1.1-1.5 1.1H109c-.6 0-1.1-.5-1.1-1.1v-41.9c0-.7-.5-1.2-1.5-1.2H79.6c-1 0-1.6.6-1.6 1.6v115.9c0 1.3 1 2.5 2.1 2.5h26.4c.7 0 1.4-.8 1.4-1.6v-41.9c0-.6.3-1.3 1.1-1.3h3.7c.7 0 1 .7 1 1.3v41.7c0 .8.6 1.7 1.5 1.7h27.1c.8 0 1.3-1 1.3-1.7V453.1c0-.7-.7-1.4-1.6-1.4zm36.7 0h-27.3c-.8 0-1.5.8-1.5 1.6v115.9c0 1.3 1 2.4 2.1 2.4h26.6c1.1 0 1.9-1.1 1.9-2.1V453.3c.1-1-.7-1.6-1.8-1.6zm58.4 51.5c-9.6-6.5-17.1-12.3-17.1-17.5 0-1.5.8-2.8 2.5-2.8 2.2 0 3.8 2 4.7 5.8.3 1.3 1 1.7 1.9 1.7l24.4-1c1.3 0 1.9-1 1.9-2.1 0-19-13.2-35.8-34.6-35.8-21.4 0-33.6 17.7-33.6 34 0 10.9 5.3 22.8 16 31.4 10.8 8.7 19.7 15.7 19.7 19.6 0 3.7-1.5 5.1-3.7 5.1-3.8 0-6.5-6.9-7.2-13.3-.1-1.4-.8-2-1.9-2l-22 1c-1.3 0-1.9.8-1.9 1.6 0 25.6 11.2 43.1 35.4 43.1 20.9 0 33.8-17.1 33.8-38.5 0-11.7-7.9-23.2-18.3-30.3z"/></svg>